#include "melody.h"

/* Avengers Theme 
Generated by MusicXML to Arduino 
https://github.com/Programista3/MusicXML-to-Arduino */

int notes[148] = {NOTE_E4, NOTE_E4, NOTE_E4, NOTE_E4, NOTE_E4, NOTE_E4, NOTE_E4, NOTE_E4, NOTE_F4, NOTE_F4, NOTE_F4, NOTE_F4, NOTE_F4, NOTE_FS4, NOTE_FS4, NOTE_FS4, NOTE_FS4, NOTE_FS4, NOTE_G4, NOTE_G4, NOTE_G4, NOTE_G4, NOTE_G4, NOTE_FS4, NOTE_FS4, NOTE_FS4, NOTE_FS4, NOTE_FS4, NOTE_F4, NOTE_F4, NOTE_F4, NOTE_F4, NOTE_F4, NOTE_C4, NOTE_D4, NOTE_A3, NOTE_E4, NOTE_D4, NOTE_C4, NOTE_C4, NOTE_D4, NOTE_E4, NOTE_E4, NOTE_A3, NOTE_E4, NOTE_D4, NOTE_C4, NOTE_C4, NOTE_B3, NOTE_A3, NOTE_E4, NOTE_D4, NOTE_C4, NOTE_C4, NOTE_D4, NOTE_E4, NOTE_E4, NOTE_A3, NOTE_E4, NOTE_D4, NOTE_C4, NOTE_C4, NOTE_B3, 0, NOTE_A3, NOTE_A4, NOTE_A4, NOTE_D4, NOTE_D4, NOTE_E4, NOTE_C4, NOTE_A3, NOTE_A4, NOTE_AS4, NOTE_A4, 0, NOTE_D4, NOTE_D5, NOTE_D5, NOTE_G5, NOTE_D5, NOTE_E5, NOTE_E5, NOTE_FS5, NOTE_F5, NOTE_A4, NOTE_FS4, NOTE_FS4, NOTE_A4, NOTE_A4, NOTE_FS4, NOTE_FS4, NOTE_A4, NOTE_A4, NOTE_FS4, NOTE_FS4, NOTE_FS4, NOTE_CS5, NOTE_B4, NOTE_FS4, NOTE_GS4, NOTE_A4, NOTE_FS4, NOTE_FS4, NOTE_A4, NOTE_A4, NOTE_FS4, NOTE_FS4, NOTE_A4, NOTE_A4, NOTE_FS4, NOTE_FS4, NOTE_FS4, NOTE_CS5, NOTE_B4, NOTE_CS5, NOTE_GS4, NOTE_GS4, NOTE_CS5, NOTE_CS5, NOTE_GS4, NOTE_GS4, NOTE_CS5, NOTE_FS4, NOTE_FS4, NOTE_FS4, NOTE_FS4, NOTE_CS5, NOTE_B4, NOTE_A4, NOTE_GS4, NOTE_FS4, NOTE_FS4, 0, NOTE_FS4, NOTE_GS4, 0, NOTE_E4, NOTE_FS4, 0, NOTE_FS4, NOTE_GS4, 0, NOTE_FS4, NOTE_FS4, NOTE_FS4, 0, 0};

int durations[148] = {720, 120, 120, 480, 120, 120, 120, 120, 120, 120, 480, 120, 120, 480, 120, 120, 120, 120, 120, 120, 480, 120, 120, 480, 120, 120, 120, 120, 120, 120, 480, 120, 120, 480, 480, 1920, 480, 360, 120, 480, 360, 120, 480, 1440, 480, 360, 120, 480, 480, 1920, 480, 360, 120, 480, 360, 120, 480, 1440, 480, 360, 120, 480, 480, 480, 480, 960, 960, 720, 120, 120, 240, 240, 1440, 960, 960, 480, 480, 960, 960, 720, 120, 120, 1920, 960, 960, 240, 240, 240, 240, 240, 240, 240, 240, 240, 240, 480, 720, 240, 1920, 960, 960, 240, 240, 240, 240, 240, 240, 240, 240, 240, 240, 480, 720, 240, 1920, 240, 240, 240, 240, 240, 240, 240, 240, 1920, 480, 480, 720, 240, 1920, 960, 960, 240, 240, 480, 240, 240, 480, 240, 240, 480, 240, 240, 480, 1920, 1920, 480, 480, 960};